<svg id="Ebene_1" data-name="Ebene 1" xmlns="http://www.w3.org/2000/svg" xmlns:xlink="http://www.w3.org/1999/xlink" viewBox="0 0 403 403"><defs><style>.cls-1{fill:#ff0;}.cls-2{fill:#fff;}.cls-3{fill:url(#radial-gradient);}.cls-4{fill:url(#radial-gradient-2);}.cls-5{fill:url(#linear-gradient);}.cls-6{fill:url(#linear-gradient-2);}.cls-7{fill:url(#radial-gradient-3);}</style><radialGradient id="radial-gradient" cx="648.5" cy="864.5" r="194.3" gradientTransform="translate(801.24 -205.35) rotate(45)" gradientUnits="userSpaceOnUse"><stop offset="0" stop-color="#fff6ad"/><stop offset="0.5" stop-color="#ffed00"/><stop offset="1" stop-color="#ffd800"/></radialGradient><radialGradient id="radial-gradient-2" cx="648.5" cy="864.5" r="135.89" gradientTransform="translate(1375.13 64.55) rotate(79.13)" gradientUnits="userSpaceOnUse"><stop offset="0" stop-color="#fff25a"/><stop offset="0.64" stop-color="#ffed00"/><stop offset="1" stop-color="#ffd800"/></radialGradient><linearGradient id="linear-gradient" x1="7.46" y1="349.09" x2="80.14" y2="349.09" gradientUnits="userSpaceOnUse"><stop offset="0" stop-color="#e90006"/><stop offset="0.25" stop-color="#e81a1e"/><stop offset="0.59" stop-color="#6a0002"/></linearGradient><linearGradient id="linear-gradient-2" x1="44.35" y1="1012.09" x2="116.72" y2="1012.09" gradientTransform="matrix(-1, 0, 0, 1, 439.75, -663)" xlink:href="#linear-gradient"/><radialGradient id="radial-gradient-3" cx="648.31" cy="941.06" r="147.08" gradientTransform="translate(0 286.58) scale(1 0.72)" gradientUnits="userSpaceOnUse"><stop offset="0" stop-color="#e81a1e"/><stop offset="0.28" stop-color="#e5191d"/><stop offset="0.51" stop-color="#db171b"/><stop offset="0.72" stop-color="#ca1417"/><stop offset="0.91" stop-color="#b30f12"/><stop offset="1" stop-color="#a50c0f"/></radialGradient></defs><title>15-jahre-kundenzufriedenheit</title><circle class="cls-1" cx="648.5" cy="864.5" r="201.5" transform="translate(-868.35 48.76) rotate(-45)"/><circle class="cls-2" cx="648.5" cy="864.5" r="199.34" transform="translate(-868.35 48.76) rotate(-45)"/><circle class="cls-3" cx="648.5" cy="864.5" r="194.3" transform="translate(-868.35 48.76) rotate(-45)"/><polygon points="252.5 349 255.69 358.22 265.44 358.4 257.65 364.28 260.5 373.61 252.5 368.02 244.5 373.61 247.35 364.28 239.56 358.4 249.31 358.22 252.5 349"/><polygon points="295.5 326 298.69 335.22 308.44 335.4 300.65 341.28 303.5 350.61 295.5 345.02 287.5 350.61 290.35 341.28 282.56 335.4 292.31 335.22 295.5 326"/><polygon points="150.5 349 147.31 358.22 137.56 358.4 145.35 364.28 142.5 373.61 150.5 368.02 158.5 373.61 155.65 364.28 163.44 358.4 153.69 358.22 150.5 349"/><polygon points="107.5 326 104.31 335.22 94.56 335.4 102.35 341.28 99.5 350.61 107.5 345.02 115.5 350.61 112.65 341.28 120.44 335.4 110.69 335.22 107.5 326"/><circle class="cls-1" cx="648.5" cy="864.5" r="143.03" transform="translate(-755.42 703.71) rotate(-80.82)"/><circle class="cls-2" cx="201.5" cy="201.5" r="140.4"/><circle class="cls-4" cx="648.5" cy="864.5" r="135.89" transform="translate(-769.82 675.26) rotate(-79.13)"/><polygon class="cls-5" points="51.87 335.89 7.46 352.68 80.14 362.29 51.87 335.89"/><polygon class="cls-6" points="350.99 335.89 395.39 352.68 323.02 362.29 350.99 335.89"/><path class="cls-7" d="M842.39,1015.68c-121.2-38.51-266.93-38.57-388.16-.2V937c121.23-38.37,267-38.3,388.16.2Z" transform="translate(-447 -663)"/><path d="M481.88,892.64l-.64.12a4.6,4.6,0,0,0-2.56,1.1,2.49,2.49,0,0,0-.41,2.19,2.66,2.66,0,0,0,3.62,2.46,3,3,0,0,0,1.9-1,11.3,11.3,0,0,0,1.33-3.16,15.79,15.79,0,0,1,2.25-5,5.49,5.49,0,0,1,3.35-1.72,6.34,6.34,0,0,1,4.95.71,6.65,6.65,0,0,1,2.43,4.46c.43,2.26.19,4-.69,5.09s-2.3,1.76-4.47,2.17l-.59.09-.64.12-.56-3,.64-.12a6.6,6.6,0,0,0,3.37-1.27,2.79,2.79,0,0,0,.5-2.61,3.56,3.56,0,0,0-1.3-2.44,3.83,3.83,0,0,0-2.83-.3,3.18,3.18,0,0,0-2.08,1.14,13.65,13.65,0,0,0-1.49,3.59,13.82,13.82,0,0,1-2.15,4.57,5.08,5.08,0,0,1-3.08,1.74,5.76,5.76,0,0,1-4.61-.72,6.57,6.57,0,0,1-2.29-4.31q-.58-3.19.49-4.7a6,6,0,0,1,3.87-1.95l.49-.07.65-.12Zm13.91-14.17-22,1.31-.59-9.86,1.23-.07,1.25-.07.41,6.84,7-.41-.38-6.44,1.23-.07,1.25-.08.38,6.44,7.6-.45-.42-7.05,1.23-.07,1.25-.08Zm-22.59-19.8.1-1.52.36-5.45a5.43,5.43,0,0,1,1.61-4,5.77,5.77,0,0,1,4.24-1l-.22,0c2,.13,3.42.72,4.25,1.77a5.33,5.33,0,0,1,1,2.92,4.29,4.29,0,0,1,1.12-2.71q1-.87,3.75-.72,2,.09,3.33,0l.52,0c.57,0,1.07-.08,1.48-.13a12.55,12.55,0,0,0,1.27-.22l-.11,1.58-.1,1.58-1.6.21a7.28,7.28,0,0,1-.93.07l-.47,0c-.92,0-1.94,0-3.05,0a4.89,4.89,0,0,0-3.1.6,3.21,3.21,0,0,0-1.07,2.47l-.15,2.34v0l10,.66-.1,1.51-.1,1.5Zm9.76-2.38.16-2.39a4.22,4.22,0,0,0-.66-3.14,4.83,4.83,0,0,0-3.21-1h.21a3.07,3.07,0,0,0-2.54.68,5,5,0,0,0-.88,3l-.16,2.39Zm-7.65-19.79.31-1.56.31-1.57,19.11.21h0l-17.77-7,.28-1.44.29-1.44,20.73,8.83-.36,1.81-.36,1.83ZM480.54,814l.44-1.43.44-1.45,21.08,6.45-.43,1.44-.45,1.45Zm22.91-18.76.6.25c2.24.87,3.66,1.93,4.29,3.18s.52,2.85-.3,4.78a6.36,6.36,0,0,1-3.16,3.66,6.19,6.19,0,0,1-4.78-.41l-9-3.84q-3.27-1.39-4.16-3.36c-.6-1.31-.46-3,.4-5s1.84-3.1,3.07-3.55a5.27,5.27,0,0,1,4,.41l.67.3.6.25-1.18,2.78-.6-.26a4.6,4.6,0,0,0-2.73-.62c-.61.14-1.12.68-1.52,1.63a3.11,3.11,0,0,0-.17,2.62,4.33,4.33,0,0,0,2.34,1.82l9,3.84a5.59,5.59,0,0,0,3.18.66,2.72,2.72,0,0,0,1.72-1.81,2.42,2.42,0,0,0-.06-2.43,6,6,0,0,0-2.78-1.87l-.6-.26Zm10.6-5L495,779.2l5-8.53,1.07.62,1.08.63-3.46,5.93,6,3.52,3.26-5.58,1.06.63,1.08.63-3.25,5.57,6.57,3.84,3.56-6.1,1.07.62,1.08.63Zm27.71-65.83,1.21-.88,3.13-2.26a7.57,7.57,0,0,1,4.79-1.79,5.23,5.23,0,0,1,3.75,2.45l.06.09a5.12,5.12,0,0,1,1.21,4.14,5.23,5.23,0,0,1-1.4,2.32,6.07,6.07,0,0,1,3-.9c1.28.05,2.54.94,3.78,2.65l.07.09q1.82,2.52,1.37,4.48c-.3,1.31-1.4,2.65-3.32,4l-3.56,2.57-1.22.87Zm8,6,2.08-1.5a3.39,3.39,0,0,0,1.58-2.12,3.64,3.64,0,0,0-.9-2.56l-.06-.09a3.62,3.62,0,0,0-2.26-1.66,3.56,3.56,0,0,0-2.66.85l-1.9,1.37Zm5.88,8.14,2.33-1.69a3.55,3.55,0,0,0,1.67-2.31,4.1,4.1,0,0,0-1-2.84l-.06-.09a3.79,3.79,0,0,0-2.36-1.78,4.31,4.31,0,0,0-2.91,1.09l-2.07,1.5Zm16.07-7.78-10.59-19.33,8.66-4.75.59,1.09.6,1.09-6,3.3,3.35,6.12,5.66-3.1.6,1.09.6,1.09-5.66,3.1,3.65,6.68,6.2-3.4.59,1.09.6,1.09ZM580,701.91l1.41-.55,5.09-2a5.37,5.37,0,0,1,4.25-.23,5.73,5.73,0,0,1,2.75,3.38l-.08-.2a5.62,5.62,0,0,1,.22,4.6,5.4,5.4,0,0,1-2.21,2.16,4.31,4.31,0,0,1,2.93-.15c.81.37,1.56,1.4,2.26,3.08.5,1.22,1,2.23,1.39,3l.25.45q.42.76.75,1.29c.22.35.47.7.74,1l-1.47.58-1.47.58c-.39-.58-.68-1-.88-1.35s-.35-.6-.46-.81l-.22-.42c-.42-.82-.84-1.74-1.27-2.77a4.8,4.8,0,0,0-1.86-2.54,3.16,3.16,0,0,0-2.7.08l-2.18.86h0l3.66,9.29-1.4.55-1.41.55Zm6.32,7.81,2.23-.88a4.28,4.28,0,0,0,2.56-1.94,4.89,4.89,0,0,0-.44-3.35l.08.2a3.09,3.09,0,0,0-1.69-2,5.1,5.1,0,0,0-3.11.5l-2.23.88Zm20-16.73,1.94-.48,2-.47,10.13,20.22-1.55.38-1.57.38-2.17-4.62-5.74,1.4.17,5.11-1.42.34-1.43.35Zm2.92,14.27L614,706.1l-5.2-10.92h0ZM630.3,691.1l-5,.54-.13-1.23-.13-1.24,13.1-1.38.13,1.22.13,1.25-5.05.53,2.05,19.45-1.49.16-1.51.16Zm30.46,13.1a5.84,5.84,0,0,1-1.66,4.36,6.56,6.56,0,0,1-4.66,1.33,6.49,6.49,0,0,1-4.59-1.6,5.76,5.76,0,0,1-1.41-4.44l.46-16.44,1.5,0,1.52,0-.45,15.62a5.4,5.4,0,0,0,.67,3.24,3.38,3.38,0,0,0,4.8.16,5.52,5.52,0,0,0,.83-3.22l.44-15.62,1.5,0,1.51,0Zm11.37,6.9-1.41-.24-1.41-.24L673,688.88l2.34.4,2.35.39,2.47,19.71,3.15-18.76,1.37.23,1.39.23-3.65,21.74-2.33-.39-2.34-.39-2.44-19.61Zm24.7,5.95q-3.51-1.09-4.35-3c-.56-1.3-.42-3.29.42-6l2.44-7.75c.74-2.36,1.76-3.92,3.06-4.66s3-.78,5.2-.09,3.38,1.55,4,2.72a5.71,5.71,0,0,1,0,4.62l-.2.62-2.88-.9.2-.63a3.49,3.49,0,0,0,.09-2.61,3.86,3.86,0,0,0-4.86-1.21,5.91,5.91,0,0,0-1.82,3.09L695.77,709a7.14,7.14,0,0,0-.45,3.9,3.09,3.09,0,0,0,2.25,1.82,9.09,9.09,0,0,0,3.08.42l1.94-6.17-3.22-1,.75-2.37,6.09,1.92-3.27,10.42A15,15,0,0,1,696.83,717.05Zm54.62,30.17-1.12-1-1.13-1,14.71-16.42,1.12,1,1.13,1-6.78,7.56L770.9,735l1.23,1.11,1.24,1.11-11.48,3-3.22,13.43-1.33-1.19L756,751.3l3.38-12.95h0Zm14.47,12.22q.36-2.06,3.58-4.8l6.19-5.26q2.84-2.42,5-2.36c1.47,0,2.93.89,4.36,2.59s2.09,3.3,1.88,4.74-1.29,3-3.25,4.65l-7,6q-2.5,2.12-4.57,2t-4.22-2.71C766.35,762.41,765.69,760.82,765.92,759.44Zm6.25,4.41a5.57,5.57,0,0,0,3-1.57l7-6a5.19,5.19,0,0,0,2-2.57,3.17,3.17,0,0,0-1-2.51,2.82,2.82,0,0,0-2.43-1.19,6.22,6.22,0,0,0-3.16,1.68L771.42,757a7.53,7.53,0,0,0-2.49,3,2.84,2.84,0,0,0,.86,2.63A2.9,2.9,0,0,0,772.17,763.85Zm6.67,14.24-.73-1.19-.74-1.19,18.76-11.58,1.29,2.09,1.29,2.09-13,12.72h0l17.15-6,1.29,2.09,1.29,2.08-18.76,11.58-.73-1.19-.74-1.19,16.29-10h0l-18.66,6.21-.8-1.29-.79-1.29,14-13.94h0Zm31.9,11.9.59,1.38,1.37,3.19c1,2.33,1.28,4.1.85,5.33s-1.72,2.3-3.86,3.22l.21-.09c-2.07.89-3.76,1.05-5.1.48s-2.46-1.93-3.39-4.1l-.77-1.79-9,3.85-.59-1.38-.6-1.39Zm-7.81,6.64.77,1.79a3.91,3.91,0,0,0,1.88,2.34,4.4,4.4,0,0,0,3.08-.49l-.22.1a4.16,4.16,0,0,0,2.37-1.88,4,4,0,0,0-.39-3l-.77-1.8Zm-5.3,20.19,21.17-6.14,2.75,9.48-1.18.35-1.2.35-1.92-6.59-6.7,1.94,1.8,6.2-1.19.35-1.2.34-1.8-6.19L800.85,819l2,6.78-1.18.34-1.2.35Zm24.59,18.78-.79-5,1.22-.19,1.23-.2,2.07,13-1.22.2-1.24.19-.79-5-19.32,3.06-.24-1.48-.24-1.5ZM804.8,854.51l22-.72.33,9.87-1.24,0-1.25,0-.22-6.85-7,.23.21,6.44-1.23.05-1.25,0L815,857.2l-7.61.25.23,7.06-1.23,0-1.25,0Zm-.13,21.07.14-1.42.14-1.42,21.94,2.12-.23,2.35-.23,2.38-19.49,3.84,18.94,1.83-.13,1.39-.14,1.4-21.94-2.13.23-2.34.23-2.37,19.39-3.8Zm.77,19,13.24,12,.62.58,2.06-8.84,1.2.28,1.22.28-2.7,11.58-1.57-.37-1.56-.36-13.24-12-.62-.58L802,906l-1.2-.28-1.22-.29,2.7-11.58,1.57.37ZM526,749.9a2.91,2.91,0,1,0,2.91,2.9A2.9,2.9,0,0,0,526,749.9Z" transform="translate(-447 -663)"/><path d="M735,719.8a2.91,2.91,0,1,1-2.91-2.9A2.91,2.91,0,0,1,735,719.8Z" transform="translate(-447 -663)"/><path d="M645.4,1028.81a34.17,34.17,0,0,0-5.52,2.48,28.09,28.09,0,0,1,8.71,12.27,23.38,23.38,0,0,1,4.63-1.11c3.46-10,10.5-19.84,20.94-27.5-1.73-1.05-3.53-2-5.4-3a62.39,62.39,0,0,0-18.13,24A32.77,32.77,0,0,0,645.4,1028.81Z" transform="translate(-447 -663)"/><path d="M663.57,1028.76a13.73,13.73,0,1,1-7.59-7.51c.47-.77.95-1.53,1.43-2.28a16.31,16.31,0,1,0,8.26,8C665,1027.55,664.27,1028.17,663.57,1028.76Z" transform="translate(-447 -663)"/><path class="cls-2" d="M483.76,948.45l-1.86.3-1.84.3q-2.64,6.06-5.21,12.13,4.47,5.84,8.84,11.71l1.94-.32,1.94-.31q-4.62-6-9.33-12Q481,954.37,483.76,948.45Z" transform="translate(-447 -663)"/><path class="cls-2" d="M471.29,950.52l-1.67.29q2.07,11.88,4.15,23.76l1.64-.29L477,974l-2.19-12.82h0q-.93-5.48-1.87-10.95Z" transform="translate(-447 -663)"/><polygon class="cls-2" points="27.85 298.18 27.85 298.18 27.85 298.18 27.85 298.18"/><path class="cls-2" d="M503.61,945.46l-1.69.24-1.67.24,2.43,16.92a6,6,0,0,1-.3,3.62,3.77,3.77,0,0,1-5.26.75,5.92,5.92,0,0,1-1.35-3.36L493.22,947l-1.69.25-1.67.26q1.38,8.89,2.74,17.78a6.32,6.32,0,0,0,2.41,4.5,7.23,7.23,0,0,0,5.29.82,7.15,7.15,0,0,0,4.8-2.31,6.29,6.29,0,0,0,1-5Q504.86,954.37,503.61,945.46Z" transform="translate(-447 -663)"/><path class="cls-2" d="M524,942.8l-1.55.19q1.24,10.34,2.51,20.66-4.38-9.95-8.89-19.86l-2.66.34-2.65.35q1.59,12,3.19,23.9l1.56-.2,1.56-.21-2.67-20.54q4.49,9.87,8.84,19.76l2.6-.32,2.57-.31q-1.41-12-2.84-23.94Z" transform="translate(-447 -663)"/><path class="cls-2" d="M547.56,947.41c-.24-2.51-1-4.25-2.43-5.24s-3.48-1.33-6.33-1l-4.34.46-1.68.19,2.67,24,1.64-.18,6.07-.64c2.14-.23,3.62-1,4.46-2.25s1.11-3.25.85-5.92C548.17,953.65,547.86,950.53,547.56,947.41ZM544.69,961a3.66,3.66,0,0,1-2.87,1.36l-3.36.36-2-18.57,3-.33a4.55,4.55,0,0,1,3.43.64,5,5,0,0,1,1.28,3.36c.31,3.12.63,6.24.94,9.36A6.13,6.13,0,0,1,544.69,961Z" transform="translate(-447 -663)"/><path class="cls-2" d="M566.88,960l-7.75.65c-.25-2.76-.49-5.53-.73-8.29q3.57-.32,7.15-.6c0-.45-.08-.91-.11-1.36s-.07-.9-.11-1.35l-7.17.6-.66-7.61c2.56-.22,5.11-.44,7.67-.64,0-.45-.07-.91-.11-1.36s-.07-.9-.1-1.35q-5.55.45-11.08.95,1.1,12,2.18,24c3.68-.33,7.36-.65,11-.94,0-.45-.07-.91-.11-1.36S566.92,960.47,566.88,960Z" transform="translate(-447 -663)"/><path class="cls-2" d="M585,937.31l-1.56.09,1.29,20.78Q580.94,948,577,937.82l-2.68.18-2.65.2q.88,12,1.76,24l1.57-.11,1.57-.11q-.74-10.34-1.46-20.66,3.9,10.11,7.66,20.24l2.6-.16,2.59-.16q-.71-12-1.42-24.07Z" transform="translate(-447 -663)"/><path class="cls-2" d="M607.23,957.62q-5,.2-10,.44l.42-.82q4.35-8.76,8.86-17.49c0-.58,0-1.17-.07-1.75s-.05-1.18-.07-1.76q-6.68.25-13.36.61l.07,1.37c0,.45,0,.9.07,1.35q5.1-.27,10.18-.49l-.44.82q-4.49,8.75-8.8,17.52c0,.58.06,1.17.1,1.76l.09,1.75c4.35-.22,8.7-.43,13.05-.6l-.06-1.36C607.26,958.52,607.25,958.07,607.23,957.62Z" transform="translate(-447 -663)"/><path class="cls-2" d="M625.2,935.66l-1.68,0,.39,17.09a6,6,0,0,1-.73,3.56,3.74,3.74,0,0,1-5.29.11A5.87,5.87,0,0,1,617,953l-.51-17.08-1.71.05-1.68.06q.3,9,.59,18a6.31,6.31,0,0,0,1.85,4.75,9,9,0,0,0,10.17-.26,6.34,6.34,0,0,0,1.6-4.85q-.18-9-.35-18Z" transform="translate(-447 -663)"/><path class="cls-2" d="M645.08,936.78v-1.35c-3.61,0-7.21,0-10.82.08l.3,24.11,1.67,0h1.64q0-5.52-.1-11c2.34,0,4.67,0,7,0v-2.72c-2.34,0-4.68,0-7,0,0-2.55,0-5.09-.07-7.64,2.47,0,4.94,0,7.41,0C645.09,937.69,645.09,937.24,645.08,936.78Z" transform="translate(-447 -663)"/><path class="cls-2" d="M659.41,935.5l-6.15,0h-1.7q-.06,12.06-.1,24.11h1.65c.55,0,1.11.18,1.66.19,0-3.64.05-7.75.08-10.75h0c.86,0,1.73-.16,2.6-.15a3.52,3.52,0,0,1,2.8.93,5.09,5.09,0,0,1,.85,3.3c0,1.22,0,2.31.14,3.32,0,.17,0,.33,0,.5s.06.59.13,1,.18,1,.33,1.73l1.74,0,1.74,0c-.13-.47-.24-.93-.32-1.38s-.15-1-.22-1.61l-.06-.56c-.09-1-.14-2.2-.14-3.65,0-2-.34-3.34-1-4a4.82,4.82,0,0,0-3.07-1.07,6,6,0,0,0,3.18-1.27c1.09-.93,1.66-2.47,1.73-4.58a6.14,6.14,0,0,0-1.39-4.49A6.24,6.24,0,0,0,659.41,935.5ZM657.54,946l-2.67,0,.06-7.76,2.69,0a5.76,5.76,0,0,1,3.44.78,3.27,3.27,0,0,1,.89,2.64,5.12,5.12,0,0,1-1,3.43C660.37,945.67,659.22,946,657.54,946Z" transform="translate(-447 -663)"/><path class="cls-2" d="M665.33,941.6v0Z" transform="translate(-447 -663)"/><path class="cls-2" d="M672.09,935.73q-.3,12-.58,24.1l1.66,0,1.65,0,.66-24.11-1.71,0Z" transform="translate(-447 -663)"/><path class="cls-2" d="M682,960.14c3.69.13,7.38.27,11.07.44l.06-1.37.06-1.34-7.77-.33c.1-2.77.21-5.54.31-8.31l7.16.29.06-1.36.06-1.35q-3.59-.16-7.18-.3c.1-2.54.19-5.09.29-7.63,2.56.09,5.13.2,7.69.32l.06-1.37.06-1.35q-5.55-.24-11.1-.44Q682.39,948.09,682,960.14Z" transform="translate(-447 -663)"/><path class="cls-2" d="M706.85,937.15l-4.35-.24-1.68-.09q-.63,12-1.25,24.08l1.64.09c2,.1,4.06.22,6.09.34s3.73-.37,4.75-1.49,1.63-3,1.81-5.7c.2-3.13.41-6.25.61-9.38.17-2.51-.34-4.37-1.54-5.56S709.71,937.31,706.85,937.15Zm4.26,7.45c-.2,3.12-.39,6.25-.59,9.38a6.27,6.27,0,0,1-1.07,3.7,3.68,3.68,0,0,1-3.06.88l-3.37-.2q.53-9.32,1-18.65l3.07.18a4.49,4.49,0,0,1,3.27,1.18A5.06,5.06,0,0,1,711.11,944.6Z" transform="translate(-447 -663)"/><path class="cls-2" d="M720.22,962.18q5.53.41,11,.87l.12-1.37c0-.44.07-.89.11-1.34-2.58-.22-5.17-.42-7.76-.62l.63-8.3q3.58.27,7.15.57c0-.46.07-.91.11-1.37s.08-.89.11-1.34q-3.57-.3-7.16-.57.28-3.81.58-7.62c2.55.2,5.11.4,7.67.62,0-.46.08-.91.11-1.37L733,939q-5.53-.46-11.07-.87Q721.1,950.16,720.22,962.18Z" transform="translate(-447 -663)"/><path class="cls-2" d="M751.5,940.7l-2.1,20.71q-2.08-10.67-4.29-21.34l-2.67-.25-2.66-.24-2.16,24,1.57.14,1.56.14,1.92-20.62q2.21,10.61,4.27,21.22l2.6.26,2.58.27q1.26-12,2.51-24l-1.58-.16Z" transform="translate(-447 -663)"/><path class="cls-2" d="M772.23,943c-.42,3.42-.84,6.85-1.25,10.27l-7.06-.83c.39-3.43.79-6.86,1.18-10.29l-1.7-.19-1.68-.19-2.67,24,1.66.19,1.64.19,1.26-11,7,.83q-.67,5.49-1.34,11l1.66.21,1.64.2q1.49-12,3-23.93l-1.69-.21Z" transform="translate(-447 -663)"/><path class="cls-2" d="M779.71,968.27q5.5.74,11,1.52c.06-.45.13-.9.19-1.35s.13-.89.19-1.34q-3.86-.55-7.72-1.08.57-4.12,1.12-8.24,3.57.48,7.12,1c.06-.45.13-.91.19-1.36s.13-.89.19-1.33l-7.13-1c.34-2.52.69-5,1-7.57,2.54.35,5.09.7,7.63,1.07.07-.45.13-.9.2-1.35s.13-.9.19-1.34q-5.5-.79-11-1.52Q781.29,956.33,779.71,968.27Z" transform="translate(-447 -663)"/><path class="cls-2" d="M800.64,946.88q-1.8,11.93-3.58,23.84l1.65.25,1.63.25L804,947.39l-1.69-.26Z" transform="translate(-447 -663)"/><path class="cls-2" d="M810.22,948.36l-.21,1.35-.21,1.34,5.64.91q-1.76,10.56-3.5,21.11l1.65.28,1.63.27q1.78-10.54,3.56-21.1l5.64,1c.07-.45.15-.9.23-1.35s.16-.88.23-1.33Q817.56,949.54,810.22,948.36Z" transform="translate(-447 -663)"/><path d="M583.72,856.44h4.71v25.29q0,5-2,7.28t-6.47,2.29c-3,0-5.25-.74-6.6-2.23s-2-3.85-1.9-7.07v-1h4.71v1a7,7,0,0,0,.9,4.07,3.24,3.24,0,0,0,2.86,1.35,3.18,3.18,0,0,0,3-1.43c.56-1,.84-2.65.84-5.09Z" transform="translate(-447 -663)"/><path d="M611.3,856.44h6.27l7.89,34.45h-5l-1.59-7.81h-9.23L608,890.89h-4.58Zm-.85,22.75h7.67l-3.86-18.5h0Z" transform="translate(-447 -663)"/><path d="M640.49,856.44h4.71v14.79h10V856.44h4.71v34.45h-4.71V875.12h-10v15.77h-4.71Z" transform="translate(-447 -663)"/><path d="M676.34,856.44h10.91q4.28,0,6.33,2.1c1.36,1.4,2,3.56,2,6.49v-.34c0,3.14-.78,5.41-2.32,6.81a8.35,8.35,0,0,1-4.45,1.88q3.14.23,4.35,1.47,1.44,1.49,1.51,5.76c0,2.07.13,3.8.3,5.2l.09.81c.12.89.24,1.66.36,2.29s.28,1.29.47,2H691c-.23-1.05-.39-1.88-.5-2.46s-.18-1.07-.21-1.44l-.07-.74c-.14-1.43-.23-3-.26-4.76,0-2.23-.45-3.81-1.26-4.76a4.94,4.94,0,0,0-4-1.41h-3.69v15.6h-4.71Zm4.71,15h3.75c2.36,0,4-.46,4.83-1.36s1.29-2.61,1.29-5.11v.34c0-1.89-.44-3.19-1.31-3.9s-2.48-1.06-4.81-1.06h-3.75Z" transform="translate(-447 -663)"/><path d="M711.19,890.89V856.44h15.43v3.88H715.91v10.91H726v3.89H715.91V887h11v3.88Z" transform="translate(-447 -663)"/><path d="M614.14,768.42,612,770a81.63,81.63,0,0,1-10.32,6.15v-9.9a63.9,63.9,0,0,0,7.74-4.69,62.42,62.42,0,0,0,6.85-6h8.56v82.68H614.14Z" transform="translate(-447 -663)"/><path d="M692.77,814q0,14-4.72,19.72t-16.26,5.71q-11.41,0-15.91-4.16t-5-15.18v-2.46h10.6v2.46q.35,5.22,2.55,7.65t6.65,2.43q6.8,0,9.14-3.6t2.34-14V807q0-7.8-2.13-10.87t-7.59-3.08q-5.22,0-7.77,2.78t-2.43,8.35h-11l.76-48.69h38.67v9.32H661.8l-.35,26.31a44.29,44.29,0,0,1,4.57-4.1,16.46,16.46,0,0,1,10-3q9.36,0,13.05,5.36t3.69,19.07Z" transform="translate(-447 -663)"/></svg>